<svg width="36" height="36" viewBox="0 0 36 36" fill="none" xmlns="http://www.w3.org/2000/svg">
<path fill-rule="evenodd" clip-rule="evenodd" d="M18 35C27.3888 35 35 27.3888 35 18C35 8.61116 27.3888 1 18 1C8.61116 1 1 8.61116 1 18C1 27.3888 8.61116 35 18 35Z" stroke="#E5E5E5"/>
<path d="M21.783 10.2115L19.7839 10.2083C17.538 10.2083 16.0866 11.6999 16.0866 14.0087V15.7609H14.0765C13.9029 15.7609 13.7622 15.902 13.7622 16.0759V18.6147C13.7622 18.7887 13.903 18.9296 14.0765 18.9296H16.0866V25.3358C16.0866 25.5098 16.2272 25.6507 16.4009 25.6507H19.0234C19.1971 25.6507 19.3377 25.5096 19.3377 25.3358V18.9296H21.6879C21.8616 18.9296 22.0022 18.7887 22.0022 18.6147L22.0032 16.0759C22.0032 15.9924 21.97 15.9124 21.9111 15.8533C21.8523 15.7942 21.7721 15.7609 21.6887 15.7609H19.3377V14.2755C19.3377 13.5616 19.5076 13.1991 20.436 13.1991L21.7827 13.1986C21.9562 13.1986 22.0969 13.0576 22.0969 12.8838V10.5263C22.0969 10.3527 21.9564 10.2118 21.783 10.2115Z" fill="white"/>
</svg>
