<svg width="29" height="29" viewBox="0 0 29 29" fill="none" xmlns="http://www.w3.org/2000/svg">
<path d="M14.5 19.4364C14.8128 19.4364 15.0664 19.1828 15.0664 18.87C15.0664 18.5572 14.8128 18.3036 14.5 18.3036C14.1872 18.3036 13.9336 18.5572 13.9336 18.87C13.9336 19.1828 14.1872 19.4364 14.5 19.4364Z" fill="#646464"/>
<path d="M26.73 1.63989H2.27004C1.01834 1.63989 0 2.65823 0 3.90994V19.7555C0 21.0072 1.01834 22.0255 2.27004 22.0255H11.3802L10.745 23.9794C9.94128 24.1153 9.32712 24.8159 9.32712 25.6576C9.32712 26.5964 10.0909 27.3602 11.0297 27.3602H17.9702C18.909 27.3602 19.6728 26.5964 19.6728 25.6576C19.6728 24.8159 19.0586 24.1153 18.2549 23.9794L17.6197 22.0255H26.7298C27.9815 22.0255 28.9999 21.0072 28.9999 19.7555V3.90994C29 2.65823 27.9817 1.63989 26.73 1.63989ZM18.5378 25.6577C18.5378 25.9706 18.2832 26.2252 17.9703 26.2252H11.0297C10.7169 26.2252 10.4622 25.9706 10.4622 25.6577C10.4622 25.3447 10.7168 25.0901 11.0297 25.0901H17.9703C18.2832 25.0901 18.5378 25.3447 18.5378 25.6577ZM17.0536 23.9551H11.9464L12.5738 22.0255H16.4262L17.0536 23.9551ZM27.865 19.7555C27.865 20.3813 27.3558 20.8905 26.73 20.8905H2.27004C1.64416 20.8905 1.13502 20.3813 1.13502 19.7555V3.90994C1.13502 3.28411 1.64416 2.77491 2.27004 2.77491H26.7299C27.3558 2.77491 27.8649 3.28411 27.8649 3.90994V19.7555H27.865Z" fill="#646464"/>
<path d="M24.9933 4.22803H4.00717C3.22485 4.22803 2.58838 4.8645 2.58838 5.64682V18.0187C2.58838 18.801 3.22485 19.4375 4.00717 19.4375H11.9563C12.2697 19.4375 12.5239 19.1834 12.5239 18.8699C12.5239 18.5565 12.2698 18.3024 11.9563 18.3024H4.00717C3.85073 18.3024 3.7234 18.175 3.7234 18.0186V5.64682C3.7234 5.49038 3.85073 5.36305 4.00717 5.36305H24.9934C25.1498 5.36305 25.2771 5.49038 25.2771 5.64682V18.0187C25.2771 18.1751 25.1498 18.3024 24.9934 18.3024H17.0441C16.7308 18.3024 16.4766 18.5565 16.4766 18.87C16.4766 19.1834 16.7307 19.4375 17.0441 19.4375H24.9933C25.7756 19.4375 26.4121 18.801 26.4121 18.0187V5.64682C26.4121 4.8645 25.7756 4.22803 24.9933 4.22803Z" fill="#646464"/>
<path d="M11.2124 9.78601V7.9039C11.2124 7.12158 10.5759 6.48511 9.7936 6.48511H6.74106C5.95874 6.48511 5.32227 7.12158 5.32227 7.9039V9.78601C5.32227 10.5683 5.95874 11.2048 6.74106 11.2048H9.7936C10.5759 11.2048 11.2124 10.5683 11.2124 9.78601ZM10.0774 9.78601C10.0774 9.94246 9.95004 10.0698 9.7936 10.0698H6.74106C6.58462 10.0698 6.45729 9.94246 6.45729 9.78601V7.9039C6.45729 7.74746 6.58462 7.62013 6.74106 7.62013H9.7936C9.95004 7.62013 10.0774 7.74746 10.0774 7.9039V9.78601Z" fill="#646464"/>
<path d="M23.318 12.3696C23.2655 12.1738 23.1125 12.0208 22.9167 11.9683L18.7505 10.8521C18.5546 10.7994 18.3457 10.8556 18.2024 10.9989C18.059 11.1423 18.003 11.3513 18.0555 11.5471L19.1718 15.7133C19.2243 15.9091 19.3772 16.0621 19.5731 16.1146C19.7691 16.1672 19.9779 16.111 20.1212 15.9677L20.4423 15.6467L21.9568 17.1612C22.0633 17.2676 22.2076 17.3274 22.3581 17.3274C22.5086 17.3274 22.6529 17.2676 22.7594 17.1611L24.3646 15.5559C24.5862 15.3343 24.5862 14.975 24.3646 14.7533L22.85 13.2389L23.1711 12.9178C23.3145 12.7744 23.3705 12.5655 23.318 12.3696ZM23.1607 15.1546L22.3581 15.9572L20.8436 14.4427C20.7328 14.3319 20.5876 14.2765 20.4423 14.2765C20.2971 14.2765 20.1519 14.3319 20.041 14.4427L20.0138 14.47L19.4063 12.2028L21.6735 12.8103L21.6462 12.8376C21.4246 13.0592 21.4246 13.4186 21.6462 13.6402L23.1607 15.1546Z" fill="#646464"/>
<path d="M12.5812 8.2774H16.0817C16.3951 8.2774 16.6493 8.02332 16.6493 7.70987C16.6493 7.39642 16.3952 7.14233 16.0817 7.14233H12.5812C12.2678 7.14233 12.0137 7.39642 12.0137 7.70987C12.0137 8.02332 12.2678 8.2774 12.5812 8.2774Z" fill="#646464"/>
<path d="M12.5812 10.5474H16.0817C16.3951 10.5474 16.6493 10.2933 16.6493 9.97989C16.6493 9.66644 16.3952 9.41235 16.0817 9.41235H12.5812C12.2678 9.41235 12.0137 9.66644 12.0137 9.97989C12.0137 10.2933 12.2678 10.5474 12.5812 10.5474Z" fill="#646464"/>
<path d="M12.5812 13.7973H16.0817C16.3951 13.7973 16.6493 13.5432 16.6493 13.2298C16.6493 12.9163 16.3952 12.6622 16.0817 12.6622H12.5812C12.2678 12.6622 12.0137 12.9163 12.0137 13.2298C12.0137 13.5432 12.2678 13.7973 12.5812 13.7973Z" fill="#646464"/>
<path d="M16.6493 15.4999C16.6493 15.1865 16.3952 14.9324 16.0817 14.9324H12.5812C12.2678 14.9324 12.0137 15.1865 12.0137 15.4999C12.0137 15.8134 12.2678 16.0675 12.5812 16.0675H16.0817C16.3952 16.0674 16.6493 15.8133 16.6493 15.4999Z" fill="#646464"/>
<path d="M5.90771 14.4209C5.90771 15.7221 6.96633 16.7807 8.26754 16.7807C9.56874 16.7807 10.6274 15.7221 10.6274 14.4209C10.6274 13.1196 9.56874 12.061 8.26754 12.061C6.96633 12.061 5.90771 13.1197 5.90771 14.4209ZM9.49234 14.4209C9.49234 15.0963 8.94286 15.6457 8.26754 15.6457C7.59221 15.6457 7.04274 15.0962 7.04274 14.4209C7.04274 13.7455 7.59221 13.1961 8.26754 13.1961C8.94286 13.1961 9.49234 13.7455 9.49234 14.4209Z" fill="#646464"/>
</svg>
