<svg width="29" height="29" viewBox="0 0 29 29" fill="none" xmlns="http://www.w3.org/2000/svg">
<g clip-path="url(#clip0_215_38)">
<path d="M27.1875 0.453125H1.8125C1.06303 0.453125 0.453125 1.06303 0.453125 1.8125V21.75C0.453125 22.4995 1.06303 23.1094 1.8125 23.1094H5.72252C6.13305 23.9468 6.9532 24.5585 7.93059 24.64L10.875 24.8856V28.5469H20.8438V24.4688C20.8438 23.9821 20.73 23.5222 20.5334 23.1094H27.1875C27.937 23.1094 28.5469 22.4995 28.5469 21.75V1.8125C28.5469 1.06303 27.937 0.453125 27.1875 0.453125ZM1.8125 1.35938H27.1875C27.4376 1.35938 27.6406 1.56237 27.6406 1.8125V5.89062H1.35938V1.8125C1.35938 1.56237 1.56237 1.35938 1.8125 1.35938ZM10.875 15.4062V16.3714C10.3643 16.8717 9.73992 17.2455 9.0625 17.4598V17.4063L9.57045 16.8984C9.82738 16.6419 9.96875 16.3003 9.96875 15.9373V15.8594C9.96875 15.254 9.57136 14.7397 9.02353 14.5648C8.95284 14.2304 8.78745 13.9227 8.54095 13.6735C8.51105 13.6436 8.47616 13.6214 8.44489 13.5938H11.7957C11.2402 14.007 10.875 14.6627 10.875 15.4062ZM7.26223 14.0469C7.50239 14.0469 7.72759 14.1407 7.89661 14.3115C8.06608 14.4823 8.15806 14.7089 8.1558 14.949L8.15217 15.4062H8.60938C8.8595 15.4062 9.0625 15.6093 9.0625 15.8594V15.9373C9.0625 16.0565 9.01447 16.1734 8.92974 16.2577L8.42178 16.7656H6.34375V14.9531C6.34375 14.4533 6.7502 14.0469 7.26223 14.0469ZM9.0625 18.4041C9.74445 18.2274 10.3883 17.9152 10.9538 17.4933C11.1541 18.4812 11.7563 19.3638 12.6345 19.8904L13.0727 20.1532L12.7872 21.2969H9.0625V18.4041ZM13.9472 20.3906H15.0524L15.2789 21.2969H13.7206L13.9472 20.3906ZM15.2807 19.4844H13.7197L13.1017 19.1137C12.2869 18.6252 11.7812 17.7321 11.7812 16.7824V15.4062C11.7812 14.6568 12.3912 14.0469 13.1406 14.0469H15.8594C16.6088 14.0469 17.2188 14.6568 17.2188 15.4062V16.7824C17.2188 17.7321 16.7131 18.6248 15.8988 19.1137L15.2807 19.4844ZM8.15625 12.6875V8.63248C10.2936 8.84591 11.9983 10.5501 12.2113 12.6875H8.15625ZM7.25 12.953L7.04111 13.1619C6.21008 13.2589 5.55531 13.9137 5.45834 14.7447L4.19141 16.0116C3.5448 15.2214 3.17188 14.2182 3.17188 13.1406C3.17188 10.7952 4.96353 8.86041 7.25 8.63248V12.953ZM5.4375 16.047V17.067C5.22317 16.9442 5.02198 16.8041 4.83348 16.651L5.4375 16.047ZM19.9375 27.6406H18.125V24.0156H17.2188V27.6406H11.7812V24.0519L8.00581 23.7374C7.07373 23.6595 6.34375 22.866 6.34375 21.9308V17.6719H8.15625V21.47L7.50058 21.798L7.90613 22.6087L8.71631 22.2031H17.6719C18.9211 22.2031 19.9375 23.2195 19.9375 24.4688V27.6406ZM27.1875 22.2031H19.8872C19.3149 21.6435 18.5333 21.2969 17.6719 21.2969H16.2128L15.9269 20.1536L16.3651 19.8908C17.4508 19.2397 18.125 18.0484 18.125 16.7824V15.4062C18.125 14.157 17.1086 13.1406 15.8594 13.1406H13.1406C13.1406 10.1423 10.7015 7.70312 7.70312 7.70312C4.7048 7.70312 2.26562 10.1423 2.26562 13.1406C2.26562 15.2921 3.5013 17.197 5.4375 18.082V21.9308C5.4375 22.0237 5.45427 22.1125 5.46378 22.2031H1.8125C1.56237 22.2031 1.35938 22.0001 1.35938 21.75V6.79688H27.6406V21.75C27.6406 22.0001 27.4376 22.2031 27.1875 22.2031Z" fill="#646464"/>
<path d="M4.98438 2.26562H2.26562V4.98438H4.98438V2.26562ZM4.07812 4.07812H3.17188V3.17188H4.07812V4.07812Z" fill="#646464"/>
<path d="M8.60938 2.26562H5.89062V4.98438H8.60938V2.26562ZM7.70312 4.07812H6.79688V3.17188H7.70312V4.07812Z" fill="#646464"/>
<path d="M12.2344 2.26562H9.51562V4.98438H12.2344V2.26562ZM11.3281 4.07812H10.4219V3.17188H11.3281V4.07812Z" fill="#646464"/>
<path d="M26.7344 2.26562H18.5781V4.98438H26.7344V2.26562ZM25.8281 4.07812H19.4844V3.17188H25.8281V4.07812Z" fill="#646464"/>
<path d="M25.8281 14.0469H24.9219V20.3906H24.0156V16.7656H23.1094V20.3906H22.2031V14.9531H21.2969V20.3906H20.3906V13.1406H19.4844V21.2969H26.7344V20.3906H25.8281V14.0469Z" fill="#646464"/>
<path d="M19.4844 7.70312H26.7344V8.60938H19.4844V7.70312Z" fill="#646464"/>
<path d="M19.4844 9.51562H20.3906V10.4219H19.4844V9.51562Z" fill="#646464"/>
<path d="M21.2969 9.51562H26.7344V10.4219H21.2969V9.51562Z" fill="#646464"/>
<path d="M19.4844 11.3281H26.7344V12.2344H19.4844V11.3281Z" fill="#646464"/>
</g>
<defs>
<clipPath id="clip0_215_38">
<rect width="29" height="29" fill="white"/>
</clipPath>
</defs>
</svg>
