<svg width="26" height="26" viewBox="0 0 26 26" fill="none" xmlns="http://www.w3.org/2000/svg">
<g clip-path="url(#clip0_215_97)">
<path d="M24.2269 22.3692C25.2046 22.3692 26 21.5738 26 20.5961V2.53906C26 1.13902 24.861 0 23.4609 0H2.53906C1.13902 0 0 1.13902 0 2.53906V20.5961C0 21.5738 0.795437 22.3692 1.77313 22.3692H2.33594V24.9844H0.507812C0.227348 24.9844 0 25.2118 0 25.4922C0 25.7726 0.227348 26 0.507812 26H25.4922C25.7727 26 26 25.7726 26 25.4922C26 25.2118 25.7727 24.9844 25.4922 24.9844H23.6641V22.3692H24.2269ZM1.01562 2.53906C1.01562 1.69904 1.69904 1.01562 2.53906 1.01562H23.4609C24.301 1.01562 24.9844 1.69904 24.9844 2.53906V3.65625H1.06661C1.04939 3.65625 1.03238 3.65716 1.01562 3.65884V2.53906ZM5.58594 24.9844H3.35156V20.4141H5.58594V24.9844ZM11.2734 24.9844H9.03906V14.7993H11.2734V24.9844ZM16.9609 24.9844H14.7266V19.0938H16.9609V24.9844ZM23.1562 13.0254H19.9062C19.6258 13.0254 19.3984 13.2528 19.3984 13.5332V16.0976C19.3984 16.378 19.6258 16.6054 19.9062 16.6054C20.1867 16.6054 20.4141 16.378 20.4141 16.0976V14.041H22.6484V24.9844H20.4141V19.5127C20.4141 19.2323 20.1867 19.0049 19.9062 19.0049C19.6258 19.0049 19.3984 19.2323 19.3984 19.5127V24.9844H17.9766V18.5859C17.9766 18.3055 17.7492 18.0781 17.4688 18.0781H14.2188C13.9383 18.0781 13.7109 18.3055 13.7109 18.5859V24.9844H12.2891V14.2915C12.2891 14.0111 12.0617 13.7837 11.7812 13.7837H8.53125C8.25078 13.7837 8.02344 14.0111 8.02344 14.2915V24.9844H6.60156V19.9062C6.60156 19.6258 6.37421 19.3984 6.09375 19.3984H2.84375C2.56329 19.3984 2.33594 19.6258 2.33594 19.9062V21.3536H1.77313C1.3554 21.3536 1.01562 21.0138 1.01562 20.5961V4.66928C1.03238 4.67096 1.04939 4.67188 1.06661 4.67188H24.9844V20.5961C24.9844 21.0138 24.6445 21.3536 24.2269 21.3536H23.6641V13.5332C23.6641 13.2528 23.4367 13.0254 23.1562 13.0254Z" fill="#666666"/>
<path d="M22.7501 1.82812H11.2769C10.9964 1.82812 10.769 2.05552 10.769 2.33594C10.769 2.61635 10.9964 2.84375 11.2769 2.84375H22.7501C23.0306 2.84375 23.2579 2.61635 23.2579 2.33594C23.2579 2.05552 23.0306 1.82812 22.7501 1.82812Z" fill="#666666"/>
<path d="M5.64027 1.97691C5.54582 1.88246 5.4148 1.82812 5.28125 1.82812C5.1477 1.82812 5.01668 1.88241 4.92223 1.97691C4.82777 2.07137 4.77344 2.20238 4.77344 2.33594C4.77344 2.46949 4.82777 2.60051 4.92223 2.69491C5.01668 2.78941 5.1477 2.84375 5.28125 2.84375C5.4148 2.84375 5.54582 2.78941 5.64027 2.69491C5.73473 2.60051 5.78906 2.46949 5.78906 2.33594C5.78906 2.20238 5.73473 2.07137 5.64027 1.97691Z" fill="#666666"/>
<path d="M3.60902 1.97691C3.51457 1.88246 3.38355 1.82812 3.25 1.82812C3.11645 1.82812 2.98543 1.88241 2.89098 1.97691C2.79652 2.07137 2.74219 2.20238 2.74219 2.33594C2.74219 2.46949 2.79652 2.60051 2.89098 2.69491C2.98543 2.78941 3.11645 2.84375 3.25 2.84375C3.38355 2.84375 3.51457 2.78941 3.60902 2.69491C3.70348 2.60051 3.75781 2.46949 3.75781 2.33594C3.75781 2.20238 3.70348 2.07137 3.60902 1.97691Z" fill="#666666"/>
<path d="M7.67152 1.97691C7.57707 1.88246 7.44656 1.82812 7.3125 1.82812C7.17895 1.82812 7.04793 1.88241 6.95348 1.97691C6.85902 2.07137 6.80469 2.20238 6.80469 2.33594C6.80469 2.46949 6.85902 2.60051 6.95348 2.69491C7.04793 2.78941 7.17895 2.84375 7.3125 2.84375C7.44605 2.84375 7.57707 2.78941 7.67152 2.69491C7.76598 2.60051 7.82031 2.46949 7.82031 2.33594C7.82031 2.20238 7.76598 2.07137 7.67152 1.97691Z" fill="#666666"/>
<path d="M20.2653 17.5484C20.1708 17.4535 20.0398 17.3997 19.9062 17.3997C19.7727 17.3997 19.6417 17.4535 19.5472 17.5484C19.4528 17.6429 19.3984 17.7739 19.3984 17.9075C19.3984 18.041 19.4528 18.172 19.5472 18.2665C19.6417 18.3609 19.7727 18.4153 19.9062 18.4153C20.0398 18.4153 20.1708 18.3609 20.2653 18.2665C20.3597 18.172 20.4141 18.041 20.4141 17.9075C20.4141 17.7734 20.3597 17.6429 20.2653 17.5484Z" fill="#666666"/>
<path d="M21.5313 6.90308C20.5232 6.90308 19.7031 7.72314 19.7031 8.7312C19.7031 9.13161 19.8329 9.50211 20.0521 9.8036L16.6789 13.1767C16.4171 13.0319 16.1164 12.9491 15.7966 12.9491C15.5084 12.9491 15.2357 13.0164 14.993 13.1357L11.4709 9.61352C11.6158 9.35175 11.6986 9.05102 11.6986 8.7312C11.6986 7.72314 10.8785 6.90308 9.87043 6.90308C8.86237 6.90308 8.0423 7.72314 8.0423 8.7312C8.0423 9.08352 8.14275 9.41268 8.31612 9.69208L5.31733 12.6908C5.05555 12.5459 4.75483 12.4632 4.43506 12.4632C3.427 12.4632 2.60693 13.2832 2.60693 14.2913C2.60693 15.2993 3.427 16.1194 4.43506 16.1194C5.44312 16.1194 6.26318 15.2993 6.26318 14.2913C6.26318 13.9715 6.18041 13.6707 6.03553 13.409L9.07012 10.3744C9.31199 10.4926 9.58357 10.5593 9.87043 10.5593C10.1902 10.5593 10.4909 10.4765 10.7527 10.3316L14.2404 13.8192C14.0682 14.098 13.9685 14.4261 13.9685 14.7771C13.9685 15.7852 14.7885 16.6052 15.7966 16.6052C16.8047 16.6052 17.6247 15.7852 17.6247 14.7771C17.6247 14.4573 17.542 14.1566 17.3971 13.8948L20.8606 10.4313C21.0685 10.5136 21.2946 10.5593 21.5313 10.5593C22.5393 10.5593 23.3594 9.73926 23.3594 8.7312C23.3594 7.72314 22.5393 6.90308 21.5313 6.90308ZM4.43511 15.1039C3.98712 15.1039 3.62261 14.7394 3.62261 14.2914C3.62261 13.8434 3.98712 13.4789 4.43511 13.4789C4.8831 13.4789 5.24761 13.8434 5.24761 14.2914C5.24761 14.7394 4.8831 15.1039 4.43511 15.1039ZM9.87048 9.5437C9.42249 9.5437 9.05798 9.17919 9.05798 8.7312C9.05798 8.28321 9.42249 7.9187 9.87048 7.9187C10.3185 7.9187 10.683 8.28321 10.683 8.7312C10.683 9.17919 10.3185 9.5437 9.87048 9.5437ZM15.7966 15.5897C15.3487 15.5897 14.9841 15.2252 14.9841 14.7772C14.9841 14.3292 15.3487 13.9647 15.7966 13.9647C16.2446 13.9647 16.6091 14.3292 16.6091 14.7772C16.6091 15.2252 16.2446 15.5897 15.7966 15.5897ZM21.5313 9.5437C21.0833 9.5437 20.7188 9.17919 20.7188 8.7312C20.7188 8.28321 21.0833 7.9187 21.5313 7.9187C21.9793 7.9187 22.3438 8.28321 22.3438 8.7312C22.3438 9.17919 21.9793 9.5437 21.5313 9.5437Z" fill="#666666"/>
<path d="M7.53236 6.54838C7.4374 6.45392 7.30689 6.39954 7.17334 6.39954C7.03928 6.39954 6.90826 6.45387 6.81381 6.54838C6.71936 6.64278 6.66553 6.77379 6.66553 6.90735C6.66553 7.0409 6.71936 7.17192 6.81381 7.26637C6.90877 7.36083 7.03928 7.41516 7.17334 7.41516C7.30689 7.41516 7.4374 7.36088 7.53236 7.26637C7.62682 7.17192 7.68115 7.0409 7.68115 6.90735C7.68115 6.77379 7.62682 6.64278 7.53236 6.54838Z" fill="#666666"/>
<path d="M5.28125 6.39954H2.84375C2.56329 6.39954 2.33594 6.62693 2.33594 6.90735C2.33594 7.18776 2.56329 7.41516 2.84375 7.41516H5.28125C5.56171 7.41516 5.78906 7.18776 5.78906 6.90735C5.78906 6.62693 5.56171 6.39954 5.28125 6.39954Z" fill="#666666"/>
<path d="M5.28125 8.83691H2.84375C2.56329 8.83691 2.33594 9.06431 2.33594 9.34473C2.33594 9.62514 2.56329 9.85254 2.84375 9.85254H5.28125C5.56171 9.85254 5.78906 9.62514 5.78906 9.34473C5.78906 9.06431 5.56171 8.83691 5.28125 8.83691Z" fill="#666666"/>
</g>
<defs>
<clipPath id="clip0_215_97">
<rect width="26" height="26" fill="white"/>
</clipPath>
</defs>
</svg>
