<svg width="31" height="31" viewBox="0 0 31 31" fill="none" xmlns="http://www.w3.org/2000/svg">
<g clip-path="url(#clip0_215_89)">
<path d="M14.0106 30.0318H9.98262C8.34409 30.0318 7.01099 28.6987 7.01099 27.0602V3.87807C7.01099 2.23954 8.34409 0.9065 9.98262 0.9065H10.0063L10.5097 2.08471C10.8028 2.77075 11.4742 3.21403 12.2203 3.21403H17.3464C18.0924 3.21403 18.7638 2.77081 19.0569 2.08477L19.5603 0.9065H19.584C21.2225 0.9065 22.5556 2.23954 22.5556 3.87807V13.9251C22.5556 14.1754 22.7585 14.3784 23.0088 14.3784C23.2592 14.3784 23.4621 14.1754 23.4621 13.9251V3.87807C23.4621 1.73969 21.7223 0 19.584 0H9.98262C7.84419 0 6.10449 1.73969 6.10449 3.87807V27.0602C6.10449 29.1985 7.84419 30.9383 9.98262 30.9383H14.0106C14.2609 30.9383 14.4638 30.7354 14.4638 30.485C14.4638 30.2347 14.2609 30.0318 14.0106 30.0318ZM18.2233 1.72851C18.073 2.08024 17.7288 2.30747 17.3464 2.30747H12.2202C11.8377 2.30747 11.4936 2.08024 11.3433 1.72851L10.992 0.9065H18.5745L18.2233 1.72851Z" fill="#646464"/>
<path d="M24.4427 23.2216C24.1923 23.2216 23.9894 23.4245 23.9894 23.6748V25.1379C23.9894 27.8703 21.7663 30.0934 19.0338 30.0934C16.6677 30.0934 14.6221 28.4078 14.1696 26.0855L13.8963 24.6823C13.8688 24.5411 13.8172 24.407 13.7429 24.2833L10.6594 19.161C10.4481 18.8099 10.5047 18.3643 10.797 18.0773C10.9692 17.9083 11.195 17.8181 11.4379 17.8251C11.679 17.8314 11.9016 17.9329 12.0646 18.1107L14.1208 20.3546C14.2848 20.5335 14.5371 20.5924 14.7634 20.5043C14.9896 20.4163 15.1359 20.2025 15.1359 19.9597V15.6962C15.1359 15.4459 14.933 15.2429 14.6826 15.2429C14.4323 15.2429 14.2294 15.4459 14.2294 15.6962V19.1313L12.7329 17.4983C12.4023 17.1376 11.9509 16.9318 11.4617 16.9189C10.9743 16.9055 10.511 17.0877 10.1618 17.4305C9.56888 18.0127 9.45412 18.9165 9.88265 19.6286L12.966 24.7507C12.9856 24.7832 12.9991 24.8185 13.0064 24.8556L13.2798 26.2589C13.8149 29.0061 16.2349 31 19.0337 31C22.2661 31 24.8959 28.3702 24.8959 25.1379V23.6749C24.8959 23.4245 24.6931 23.2216 24.4427 23.2216Z" fill="#646464"/>
<path d="M23.2224 15.8168C22.9049 15.8168 22.6077 15.9057 22.3546 16.0599C22.1202 15.4185 21.5039 14.9594 20.7823 14.9594C20.4403 14.9594 20.122 15.0628 19.8567 15.2396C19.589 14.6715 19.011 14.2771 18.3423 14.2771C18.0661 14.2771 17.8054 14.3448 17.5756 14.4639V10.2231C17.5756 9.30045 16.8249 8.5498 15.9023 8.5498C14.9796 8.5498 14.229 9.30039 14.229 10.2231V13.7647C14.229 14.015 14.4319 14.2179 14.6823 14.2179C14.9326 14.2179 15.1355 14.015 15.1355 13.7647V10.2231C15.1355 9.80029 15.4794 9.4563 15.9023 9.4563C16.3251 9.4563 16.6691 9.80023 16.6691 10.2231V17.8099C16.6691 18.0602 16.8719 18.2631 17.1223 18.2631C17.3727 18.2631 17.5756 18.0602 17.5756 17.8099V15.9504C17.5756 15.5276 17.9195 15.1836 18.3423 15.1836C18.7652 15.1836 19.1091 15.5276 19.1091 15.9504V18.4922C19.1091 18.7425 19.312 18.9454 19.5624 18.9454C19.8127 18.9454 20.0156 18.7425 20.0156 18.4922V16.6327C20.0156 16.2099 20.3595 15.8659 20.7824 15.8659C21.2052 15.8659 21.5492 16.2098 21.5492 16.6327V19.3495C21.5492 19.5998 21.752 19.8028 22.0024 19.8028C22.2528 19.8028 22.4557 19.5998 22.4557 19.3495V17.4901C22.4557 17.0673 22.7997 16.7233 23.2224 16.7233C23.6452 16.7233 23.9892 17.0672 23.9892 17.4901V21.7432C23.9892 21.9935 24.1921 22.1964 24.4425 22.1964C24.6929 22.1964 24.8957 21.9935 24.8957 21.7432V17.4901C24.8956 16.5674 24.145 15.8168 23.2224 15.8168Z" fill="#646464"/>
<path d="M20.7827 10.3878C21.0331 10.3878 21.236 10.1849 21.236 9.93459C21.236 8.6351 20.7582 7.384 19.8905 6.41193C19.7239 6.22526 19.4374 6.20888 19.2506 6.37555C19.0638 6.54223 19.0476 6.8288 19.2142 7.01554C19.9333 7.8213 20.3294 8.85797 20.3294 9.93459C20.3295 10.1849 20.5324 10.3878 20.7827 10.3878Z" fill="#646464"/>
<path d="M17.8112 5.96518C18.0373 6.07227 18.3077 5.97582 18.4149 5.74962C18.5219 5.52341 18.4255 5.25316 18.1993 5.14595C17.4883 4.80915 16.728 4.63843 15.9393 4.63843C13.019 4.63843 10.6431 7.0143 10.6431 9.93462C10.6431 10.1849 10.8459 10.3879 11.0963 10.3879C11.3467 10.3879 11.5496 10.1849 11.5496 9.93462C11.5496 7.51415 13.5188 5.54493 15.9393 5.54493C16.5927 5.54487 17.2225 5.68628 17.8112 5.96518Z" fill="#646464"/>
<path d="M13.0875 10.3878C13.3379 10.3878 13.5408 10.1849 13.5408 9.93455C13.5408 8.61197 14.6168 7.53602 15.9393 7.53602C17.2618 7.53602 18.3379 8.61197 18.3379 9.93455C18.3379 10.1849 18.5407 10.3878 18.7911 10.3878C19.0415 10.3878 19.2444 10.1849 19.2444 9.93455C19.2444 8.11213 17.7617 6.62952 15.9393 6.62952C14.1169 6.62952 12.6343 8.11213 12.6343 9.93455C12.6343 10.1849 12.8372 10.3878 13.0875 10.3878Z" fill="#646464"/>
</g>
<defs>
<clipPath id="clip0_215_89">
<rect width="31" height="31" fill="white"/>
</clipPath>
</defs>
</svg>
