<svg width="36" height="36" viewBox="0 0 36 36" fill="none" xmlns="http://www.w3.org/2000/svg">
<path fill-rule="evenodd" clip-rule="evenodd" d="M18 35C27.3888 35 35 27.3888 35 18C35 8.61116 27.3888 1 18 1C8.61116 1 1 8.61116 1 18C1 27.3888 8.61116 35 18 35Z" stroke="#E5E5E5"/>
<path d="M28.9873 11.7085L21.2529 17.9917L29.0002 23.0217V11.8468C29.0002 11.8007 28.9959 11.7546 28.9873 11.7085Z" fill="white"/>
<path d="M20.5566 18.5576L19.5812 19.3498C19.1215 19.7229 18.5629 19.9073 18 19.9073C17.4371 19.9073 16.8785 19.7229 16.4187 19.3498L15.4434 18.5576L7 24.0361V24.1492C7 24.6187 7.39102 25.0001 7.86797 25.0001H28.1277C28.609 25.0001 28.9957 24.6187 28.9957 24.1534V24.0361L20.5566 18.5576Z" fill="white"/>
<path d="M28.1321 11H7.86805C7.86805 11 7.86805 11 7.86375 11C7.73914 11 7.68758 11.1551 7.78211 11.2305L15.7442 17.6982C15.7442 17.6982 15.7442 17.6982 15.7485 17.7024L16.9731 18.7C17.5661 19.182 18.4298 19.182 19.0227 18.7L28.2137 11.2305C28.3083 11.1551 28.2567 11 28.1321 11Z" fill="white"/>
<path d="M7.01289 11.7085C7.0043 11.7546 7 11.8007 7 11.8468V23.0175L14.7473 17.9875L7.01289 11.7085Z" fill="white"/>
</svg>
