<svg width="34" height="34" viewBox="0 0 34 34" fill="none" xmlns="http://www.w3.org/2000/svg">
<path fill-rule="evenodd" clip-rule="evenodd" d="M17 34C26.3888 34 34 26.3888 34 17C34 7.61116 26.3888 0 17 0C7.61116 0 0 7.61116 0 17C0 26.3888 7.61116 34 17 34Z" fill="white"/>
<path d="M24.7918 12.1344C24.2186 12.3903 23.6021 12.5634 22.9554 12.6407C23.6157 12.2424 24.1223 11.6123 24.3615 10.8602C23.7437 11.2292 23.0592 11.4968 22.3312 11.6411C21.748 11.0158 20.9171 10.625 19.997 10.625C18.2317 10.625 16.7999 12.0665 16.7999 13.8438C16.7999 14.0961 16.8283 14.3416 16.8831 14.5773C14.226 14.4432 11.8701 13.1618 10.2931 11.2138C10.018 11.6891 9.86013 12.2424 9.86013 12.8322C9.86013 13.9487 10.425 14.9343 11.2824 15.5114C10.7585 15.4948 10.2652 15.35 9.83438 15.1083C9.83414 15.122 9.83414 15.1357 9.83414 15.1491C9.83414 16.7087 10.9366 18.0095 12.3989 18.305C12.1309 18.3789 11.8479 18.4181 11.5568 18.4181C11.3503 18.4181 11.1503 18.3981 10.9552 18.3607C11.362 19.6392 12.5425 20.5698 13.9418 20.596C12.8474 21.4594 11.4691 21.9739 9.97076 21.9739C9.71325 21.9739 9.45813 21.9587 9.2085 21.9287C10.6226 22.8423 12.3036 23.375 14.109 23.375C19.9896 23.375 23.2056 18.4704 23.2056 14.2166C23.2056 14.0771 23.2025 13.9381 23.1963 13.8003C23.8214 13.3466 24.3634 12.7799 24.7918 12.1344Z" fill="#414461"/>
</svg>
